<svg xmlns="http://www.w3.org/2000/svg" viewBox="0 0 1200 630" fill="none">
  <rect width="1200" height="630" rx="28" fill="#050f1f" />
  <rect x="48" y="54" width="1104" height="522" rx="22" fill="url(#paint0_linear)" stroke="#0f213f" stroke-width="2" />
  <rect x="96" y="120" width="1008" height="120" rx="18" fill="#0c2241" stroke="#123a63" stroke-width="2" />
  <rect x="96" y="276" width="312" height="246" rx="18" fill="#0b1d36" stroke="#123a63" stroke-width="2" />
  <rect x="436" y="276" width="660" height="246" rx="18" fill="#0c2241" stroke="#123a63" stroke-width="2" />
  <circle cx="146" cy="180" r="14" fill="#00dc82" />
  <circle cx="186" cy="180" r="14" fill="#1abcfe" />
  <circle cx="226" cy="180" r="14" fill="#00dc82" opacity="0.6" />
  <rect x="276" y="158" width="190" height="12" rx="6" fill="#103557" />
  <rect x="276" y="186" width="240" height="12" rx="6" fill="#103557" />
  <rect x="276" y="214" width="168" height="12" rx="6" fill="#103557" />
  <rect x="528" y="158" width="162" height="20" rx="10" fill="#00dc82" opacity="0.18" stroke="#00dc82" />
  <rect x="708" y="158" width="162" height="20" rx="10" fill="#1abcfe" opacity="0.18" stroke="#1abcfe" />
  <rect x="888" y="158" width="162" height="20" rx="10" fill="#00dc82" opacity="0.18" stroke="#00dc82" />
  <rect x="148" y="322" width="200" height="18" rx="9" fill="#00dc82" />
  <rect x="148" y="360" width="240" height="18" rx="9" fill="#1abcfe" />
  <rect x="148" y="398" width="210" height="18" rx="9" fill="#00dc82" opacity="0.75" />
  <rect x="148" y="436" width="260" height="18" rx="9" fill="#102f4d" />
  <rect x="148" y="474" width="180" height="18" rx="9" fill="#102f4d" />
  <rect x="488" y="318" width="260" height="16" rx="8" fill="#0f3d62" />
  <rect x="488" y="356" width="340" height="14" rx="7" fill="#0f3d62" />
  <rect x="488" y="390" width="440" height="14" rx="7" fill="#0f3d62" />
  <rect x="488" y="424" width="360" height="14" rx="7" fill="#0f3d62" />
  <rect x="488" y="458" width="300" height="14" rx="7" fill="#0f3d62" />
  <rect x="488" y="492" width="240" height="14" rx="7" fill="#0f3d62" />
  <rect x="888" y="322" width="156" height="92" rx="12" fill="#0b1f37" stroke="#123a63" stroke-width="2" />
  <rect x="912" y="348" width="108" height="12" rx="6" fill="#00dc82" />
  <rect x="912" y="374" width="124" height="12" rx="6" fill="#1abcfe" />
  <defs>
    <linearGradient id="paint0_linear" x1="76" y1="64" x2="1086" y2="582" gradientUnits="userSpaceOnUse">
      <stop stop-color="#08192f" />
      <stop offset="1" stop-color="#0a2646" />
    </linearGradient>
  </defs>
</svg>
