<svg xmlns="http://www.w3.org/2000/svg" viewBox="0 0 1200 630" fill="none">
  <rect width="1200" height="630" rx="28" fill="#050f1f" />
  <rect x="36" y="36" width="1128" height="558" rx="24" fill="url(#paint0_linear)" stroke="#0f213f" stroke-width="2" />
  <rect x="84" y="118" width="300" height="360" rx="18" fill="#0a1f3a" stroke="#123a63" stroke-width="2" />
  <rect x="420" y="118" width="676" height="124" rx="18" fill="#0c2546" stroke="#123a63" stroke-width="2" />
  <rect x="420" y="274" width="676" height="204" rx="18" fill="url(#paint1_linear)" stroke="#123a63" stroke-width="2" />
  <circle cx="230" cy="196" r="52" fill="url(#paint2_radial)" />
  <rect x="168" y="290" width="150" height="14" rx="7" fill="#0f3d62" />
  <rect x="168" y="322" width="196" height="14" rx="7" fill="#0f3d62" />
  <rect x="168" y="354" width="126" height="14" rx="7" fill="#0f3d62" />
  <rect x="168" y="386" width="180" height="14" rx="7" fill="#0f3d62" />
  <rect x="168" y="418" width="142" height="14" rx="7" fill="#0f3d62" />
  <rect x="468" y="176" width="188" height="12" rx="6" fill="#00dc82" />
  <rect x="468" y="204" width="240" height="12" rx="6" fill="#1abcfe" opacity="0.85" />
  <rect x="468" y="232" width="150" height="12" rx="6" fill="#00dc82" opacity="0.7" />
  <rect x="468" y="322" width="282" height="18" rx="9" fill="#102f4d" />
  <rect x="468" y="360" width="220" height="12" rx="6" fill="#00dc82" />
  <rect x="468" y="386" width="300" height="12" rx="6" fill="#1abcfe" opacity="0.7" />
  <rect x="468" y="412" width="180" height="12" rx="6" fill="#00dc82" />
  <rect x="812" y="322" width="208" height="106" rx="14" fill="#0f213f" stroke="#123a63" stroke-width="2" />
  <rect x="836" y="346" width="80" height="14" rx="7" fill="#00dc82" />
  <rect x="836" y="374" width="152" height="12" rx="6" fill="#102f4d" />
  <rect x="836" y="402" width="110" height="12" rx="6" fill="#102f4d" />
  <circle cx="1040" cy="162" r="12" fill="#00dc82" />
  <circle cx="1010" cy="162" r="12" fill="#1abcfe" opacity="0.85" />
  <circle cx="980" cy="162" r="12" fill="#00dc82" opacity="0.65" />
  <defs>
    <linearGradient id="paint0_linear" x1="80" y1="54" x2="960" y2="614" gradientUnits="userSpaceOnUse">
      <stop stop-color="#0b1f39" />
      <stop offset="1" stop-color="#071224" />
    </linearGradient>
    <linearGradient id="paint1_linear" x1="420" y1="274" x2="1096" y2="498" gradientUnits="userSpaceOnUse">
      <stop stop-color="#0b1d36" />
      <stop offset="1" stop-color="#0a2446" />
    </linearGradient>
    <radialGradient id="paint2_radial" cx="0" cy="0" r="1" gradientUnits="userSpaceOnUse" gradientTransform="translate(206 176) rotate(42) scale(94 90)">
      <stop stop-color="#1abcfe" stop-opacity="0.8" />
      <stop offset="1" stop-color="#0a1f3a" stop-opacity="0" />
    </radialGradient>
  </defs>
</svg>
